/* XPM */
static char *abstract_blue[] = {
/* columns rows colors chars-per-pixel */
"64 64 199 2 ",
"   c #2765AD",
".  c #2867AB",
"X  c #2A6AAD",
"o  c #2665B4",
"O  c #2867B1",
"+  c #2A6CB3",
"@  c #2564BC",
"#  c #2A6CBB",
"$  c #2D72B4",
"%  c #2E73BB",
"&  c #3077BC",
"*  c #3179BE",
"=  c #2566C4",
"-  c #2769C5",
";  c #2A6DC3",
":  c #2364CB",
">  c #2769CC",
",  c #296DCB",
"<  c #2D73C3",
"1  c #2D74CD",
"2  c #2F78CD",
"3  c #3077C3",
"4  c #327CC4",
"5  c #327CCA",
"6  c #2365D4",
"7  c #2669D3",
"8  c #286DD3",
"9  c #2365DC",
"0  c #266ADD",
"q  c #286DDB",
"w  c #2C74D3",
"e  c #2F79D4",
"r  c #2B72DB",
"t  c #2F7ADB",
"y  c #317CD3",
"u  c #327DD8",
"i  c #1F64FD",
"p  c #2264E4",
"a  c #256AE3",
"s  c #2164EB",
"d  c #256BEB",
"f  c #2C75E3",
"g  c #2871EB",
"h  c #2E7AEB",
"j  c #317EE8",
"k  c #2064F4",
"l  c #2065FC",
"z  c #256DFA",
"x  c #2770F7",
"c  c #2874F7",
"v  c #2D7AF0",
"b  c #2873FD",
"n  c #2C79FD",
"m  c #307FFD",
"M  c #3484BF",
"N  c #3581C6",
"B  c #3683CC",
"V  c #3886CF",
"C  c #398ACE",
"Z  c #3A91CB",
"A  c #3684D2",
"S  c #3887D2",
"D  c #3789D3",
"F  c #3A8BD4",
"G  c #3583DC",
"H  c #3789DB",
"J  c #3B8DDC",
"K  c #3D93D4",
"L  c #3C9AD3",
"P  c #3D93DC",
"I  c #3E9BDB",
"U  c #2F80E9",
"Y  c #3483E5",
"T  c #3C8FE1",
"R  c #3E93E3",
"E  c #3F9BE1",
"W  c #3E94EA",
"Q  c #3F9EEB",
"!  c #3688F3",
"~  c #3181F8",
"^  c #3C94F5",
"/  c #3D95FB",
"(  c #4097DD",
")  c #409BDC",
"_  c #40A3CA",
"`  c #43A9CE",
"'  c #49BEC7",
"]  c #49BEC9",
"[  c #45AFD6",
"{  c #43A2DE",
"}  c #45ABDE",
"|  c #46B4D2",
" . c #48B7D4",
".. c #4ABBD4",
"X. c #47B2DC",
"o. c #49B5DE",
"O. c #4BBCDB",
"+. c #4096E6",
"@. c #419CE3",
"#. c #4097EB",
"$. c #429BEB",
"%. c #439DF3",
"&. c #449FF9",
"*. c #44A3E4",
"=. c #46ABE5",
"-. c #48AFE7",
";. c #45A4EB",
":. c #47A9EB",
">. c #48ADED",
",. c #47B1E4",
"<. c #48B2E4",
"1. c #4BBCE3",
"2. c #4AB3EB",
"3. c #4DBCEC",
"4. c #46A4F4",
"5. c #48A7F7",
"6. c #47AAF3",
"7. c #49ACF4",
"8. c #46A2FB",
"9. c #48A7FC",
"0. c #4AACFC",
"q. c #4CB4F4",
"w. c #4EBCF4",
"e. c #4DB4FD",
"r. c #4FBAFC",
"t. c #50BEF7",
"y. c #51BCFE",
"u. c #4AC1CC",
"i. c #4CC5D3",
"p. c #4DC8D6",
"a. c #4EC4DB",
"s. c #4ECBDB",
"d. c #50CDDF",
"f. c #4EC3E3",
"g. c #4FC8E2",
"h. c #4EC2EC",
"j. c #50C5E3",
"k. c #50CDE2",
"l. c #50C6EC",
"z. c #51CCEB",
"x. c #51D1E5",
"c. c #53D4EB",
"v. c #54D8EF",
"b. c #4FC2F2",
"n. c #4FC2F8",
"m. c #51C4F4",
"M. c #53CBF4",
"N. c #54C7FF",
"B. c #54C5FF",
"V. c #53C3FD",
"C. c #54CBFA",
"Z. c #55C8FF",
"A. c #55CBFE",
"S. c #55CBFD",
"D. c #55CDFC",
"F. c #56CCFF",
"G. c #57CFFF",
"H. c #55CBFD",
"J. c #58CEFF",
"K. c #58CEFF",
"L. c #54D1F3",
"P. c #55D3F2",
"I. c #55D6F2",
"U. c #56D5F7",
"Y. c #55D4F7",
"T. c #55D4F4",
"R. c #57D9F7",
"E. c #56D9F5",
"W. c #56DAF4",
"Q. c #55D1F9",
"!. c #57D3F8",
"~. c #56D6FB",
"^. c #57D1FF",
"/. c #57D3FE",
"(. c #56D1FC",
"). c #57D3FC",
"_. c #58D6F8",
"`. c #58D1FF",
"'. c #58D0FF",
"]. c #58D3FE",
"[. c #5AD4FF",
"{. c #5AD5FF",
"}. c #59D4FF",
"|. c #57D8FA",
" X c #57DDF9",
".X c #57DBF9",
"XX c #59DAFB",
"oX c #58D8F8",
"OX c #58DDF9",
"+X c #58DDFB",
"@X c #5BDAFF",
"#X c #59D8FE",
"$X c #5BDCFF",
"%X c #5ADFFE",
"&X c #5ADEFF",
"*X c #5ADEFF",
"=X c #59DCFE",
"-X c #5AE0FF",
";X c #5AE0FF",
/* pixels */
"8.A.~.w.@.#.A.c.' ' u.c.B.A.r.e.8.W $ % 4 e.J.i.2.4.J ( m.i.i.w.r.z.i.' ' ' ' u.u.c.`.2.3.f.f.p.i.p.~.8.B.c.u.] p.r.8.e.W ~ Q L.",
"8.B. X-XA.8.B.x.' ' ' k.A.r.8.8.8.B < o 4 7.`.i.r.B.~.%Xx.' d.r.0.0.~.i.' ' u. X%Xq.% 6   R 8.8.8.7.{ +.0.%Xs.L.0.0.L.g.} k w B.",
"8.y.%X-XA.8.y.c.] ' ' x.y.9.y.8.8.+ p p o 4 B.y.`.%X%X%XA.f.~.e.r.B.L.s.' ' ' u.c.;.= s : A &.8.8.J X o J L.' k.e.0.~.c.I i A 0.",
"8.e.%X-X`.9.y.%Xu.' u.M.8.0.J.0.8.4 i k 6 X q.%X%X%X`.`.I.1.] u.] ' ' ' ' ' ' ' i.A.A 1 u R B.k.z.e.A @ 4 z.] ' i.w.8.7.0 i P 9.",
"T G I { ) J :.%Xs.u.s.A.8.e.`.e.9.:.6 s - *.%X%XA.w.y. Xu.u.' ' ' ' ' ' ' ' ' ' p.z.0.y.0.0.y.I.e.r.0.F ;.B.M.s.] u.h.) 9 0 ;.8.",
"i s   X . p 9 4 :.c.s.B.%.4.`.y.r.r.+ X :.%X%X) o X $ q.s.' ' ' ' ' ' ' ' ] ] ' s.~.e.y.e.0.B.c.A.e.9.8.A.8.8.8.m.i.] I.0.8.y.8.",
"s 6 + X X 6 k 1 h.u.s.*.1 < A.A.0.q.@ : *.%XJ.P 6 + N A.x.u.' ' ' ' u.i.u.] p.' i.I.A.0.B.A.L.z.x.r.8.0.I.M.e.0.B.I.u.x.r.8.A.A.",
"%.B.z.f.<.I =.7.~.c.:.7 i p 3.A.8.B = s @ F w.d.| 4.q.p.y.1.' ' ' u.M.e.e.l.i.] ' k.%Xe.9.0.d.z.x.~.0.e.%Xs.u.i.] ' ' i.B.4.~.s.",
"8.L.] ' ] L.0.8.`.P J % i 6 3.B.0.B s p   o _ i.x.q.i.k.I.h.' ' u.M.8.! ^ 8.c.' ' c.J.B.9.0.%Xu.s.I.#.C B.c.] ' ' ' ' ' i.<.B.c.",
"0.i.' ' u.A.A 3 F S #.4 p J I.~.B.- l p + P B.`.%X%Xc.h.:.c.d.s.c.~.Y p 9 m.i.' ] c.y.A.e.e.`.p.] s.q.+ B r.c.] ' ' ' ' u.u.~.%X",
"0.p.' ' i.w.% P r.w.w.3.2.L.u.s.L.+ 9 # :.%XB.`.%Xe.F + 5 e.%Xp.' ..%.%.%.=.8.o.] M.8.e.B.L.m.s.' u.A.+ X :.k.' ' ' ' ' i.i.B.I.",
"8.M.u.s.A.8.B.%Xp.' ' u.%Xc.' u. X@.B P `.%Xr.x.c.A.2.B R B.k.' ' q.8.0.0.8.A.%Xx.h.8.w.e.k.] ' ' u.2.9 : ) s.] ' ' ' ' ..4.A.p.",
"8.A.x. XB.8.B.%Xi.] ' p.%XI.i.p. Xr.8.e.%XA.<.d.%Xc.:.A.L.s.] ' 1.4.e.0.0.0.e.%Xs.k.:.w.8.z.' u.f.2.% s k < z.u.] i.] s.r.8.A.x.",
"8.A.I.-X%X8.y.%X] ' ' c.%X-X%XB.:.#.0.y.`.`.q.%X`.2.y.L.u.' ' ] A > 0 r J 0.A.3.] x.B.0.0.z.x.r.8.P # i s =.u.] u.I.I.`.0.#.+.C ",
"8.A.c.-X%X0.0.~.] ' u.L.`.-Xs.M.P * #.0.y.J.B.B.e.A.A.w.z.1.1.| 1 s i z ! J 3.] u.I.A.8.0.z.i.b.0.#.< r ;.%Xu.' i.%X%X%XA.0.0.R ",
"8.~.x.%XA.9.8.A.u.' k.*.P A.p.c.%Xe.8.e.B.B.y.M.3.:.+ X < F e.0.0.B k ~ 8.0.k.u.c.q.% - 8 1.u.' i.i.L.8.B.%Xu.] c.-X%Xs.u.%Xe.8.",
"8.~.c. XB.0.8.%Xx.s.A.B o *.s.x.%Xe.y.A.9.0.4.k.~.z.} P 2 % @.0.0.0.K 3.3.k.] i.L.B.B 4 9 B L.u.' u.I.e.y.`.k.k.I.%Xi.' p.A.P #.",
"8.B.c.i.L.y.0.%Xs.u.p.z.w.k.' u.I.9.8.8.8.0.% ) B 3.A.M.e.y.e.e.8.4.] ' ' ] ] 1.6.A.A.@.) h.x.p.u.s.%X0.e.c.c.%X Xp.u.k.:.+ p 9 ",
"8.r.c.' ] c.0.%Xp.u.' i.`.L.u.c.A.R S #.0.`.#.:.% : = F f *.B.0.e...u.i.Z J e.0.8.A.L.W ;.c.] ' u.c.A.%.r.I.%X-X Xs.B.8.#.B 5 s ",
"8.A. Xi.i.L.0.%Xs.' ' s.A.A.x.%X`.4.B $ *.x.e.b.3.1 6 y i w B.e.O.i.B.g k 9 *.8.0.=.5 k i B g.' ' s.B.8.B.-X%X%X%Xc.B.0.0.r.P ,.",
"#.B.e.0.4.A j =.h.f.k.c.e.n.s.~.%X~.y.7.B M.7.r.z.0.J R 9 P ~.O.' X.c k k p @.8.B.1 0 a i e f.' ' x.y.8.y.%X~.I.I.s.u.p.i.w.B.s.",
"6 8.B.c.z.E 6 @ J 8.0.A.7.A.p.L.`.%X%X`.r.K 6.e.x.B.r.@.p 4 z.' ' :.y w y R e.q.I.*.= w r ;.i.' u.x.`.#.y & 4 P A.x.' ' p.8.A.i.",
"9 8.y.M.z.*.9 : @.w.f.d.B.~.p.c.`.`.A.`.-XA.y.A.i.~.P F s J L.] ] q.8.9.8.8.y.B.I.L.:.r.8.8.s.u.s.s.w.0 k X * ;.~.p.u.f.I R `.i.",
"#.3.w.e.r.,.Y 2.i.' u.M.F m.x.L.e.y.e.B.%X%XJ.y.1.q.o 4 > :.s.' ] e.&.8.8.8.y.B.u.c.A.r.0.&.B.x.d.h.- i k + <.i.s.i.2.% k s @.m.",
"8.f.' ] ' s.0.L.k.h.r.B $ A.x.A.7.R e.y.A.`.%Xy.A.y.*.P w.p.' ' ' %.< 7 7 e F =.s. Xy.r.0.8.y.%Xi.} 6 i k B c.c.] M.A @ s , B 0.",
"8.z.' ' ' s.+.S #.%.#.4 4 `.I.K o s R e.y.y.F $ 7.~.~.0.A.z.' ' ' @., k i d ;.I.s.I.0.y.4.0.%Xs.u.A.< i : 4 %X%Xk.I.*.# < 4 F e.",
":.i.c.z.i.p.8.:.0.8.&.4 % ~.%X2.# p P r.y.B.) 4 @.u.i.B.A.7.u.' ' =.J : l h A.i.] c.y.A.8.e.x.u.u.%X*.p p + w.%X Xk.i.O.f.L.A.0.",
"<.k.y.8.0.B.%.L.i.m.8.J   ) x.u.m.#.e.e.J.J.%X%X`.w.2.`.%Xf.' ' ' ' <.y ^ B.d.' ' s.A.w.8.w.u.u.p.c.{ s s % A.I.x.i.' ' ' s.l.8.",
"q.' i.h.r.B.J ~.u.u.l.7.& F k.] s.`.B.`.`.q.m.3.=.J #.*.A.f.u.' ] c.0.%.~ &.m.i.] k.A.y.y.L.u.s.z.=.0 i > w.k.u.s.d.u.' ' x.f.T ",
"Z d.i.' ' i.e.A.i.' ' u.%XL.u.] i.%XB.;.N   . X   @ <   B :.B...] L.8.%.l b 8.r.x.I.%XA.4.;.e.8.R , i p :.I.u.c.e.0.B.s.] I.-.G ",
"K B.e.e.3.m.e.B.p.u.k.l.2.L.i.p.%X-Xy.F * + X X X o - * 4 F B.p.' u.A.8.n i / e.L.%XB.A.R #.8.9.@.D A J %Xk.' k.r.8.8.y.s.%XL.;.",
"&.;.%.8.8.# A 0.k.k.B.R X :.s.d.%X-X`.y.`.`.~.~.A.B.q.M.M.y.=.' ' ' s. XM.H { i.] L.y.y.y.M.k.i.`.%XA.8.`.s.' ' u.M.0.8.0.w.B.s.",
"8.7.B #.%.# 1 y.k.u.k.z.A.k.u.k.A.m.3.w.`.%X%X%X%X%X%X`.L.p.' ' ] X.p.i.] ] [ p.1.3.F B 7.d.' ' x.v.%X0.0.z.k.s.] ] z.e.Y k F h.",
"8.e.`.q.% # = w.x.' ] s.%XA.e.&.R * X + B P e.A.%X%X`.%XL.] ' ' l.9.:.' ' z.c d B J $ X X 3.u.' s.d.%X4.4 P 8.4.M.u.' k.1 k : s ",
"%.0.%Xk.z.*.% y.s.' ' s.`.y.0.8.#.F 4 B B B 7.B.A.w.w.K J m.s.] y.B.3.' u.2.s p + B % + + *.s.u.k.x.A.#.+ J 8.#.A.i.] ~.9.T D q ",
"8.e.%Xx.u.A.8.B.u.' ' s.`.c.i.i.s. X-X%XA.0.B.B.`.%X3 9 > h k.i.e.r.O.] ' ..7.B.~.%X%X`.y.~.u.x.I.%Xe.8.0.f.s.%Xs.' s.`.0.8.q.w.",
"8.y.%XI.s.m.8.~.] ' ] k.B.c.] u.x.%X%X%X`.e.4.y.A.k.*.r A R ~.l.e.8...] ' ] 8.0.L.I.%X`.B.L.i.z.m.2.R %.y.u.u.%X~.k.%X`.e.8.y.c.",
"8.e.`.-XI.e.e.L.] ' u.c.0.~.u.i.I.B.B.`.B.4 + + *.c.B.9.B.e.B.B.e.e...] ' ' ] ] u.L.P +   J 8.&.J + @ B r.i.' L.B F K *.0.8.`.m.",
"8.e.`.-X%Xe.e.c.u.' ] c.4.~.s.c.B.0.0.A.`.@.K N 2.e.B.0.~.8.8.e.8.0.1.] ' ' ' ' ] c.4   @ J 8.8.e.=.#.8.e.c.i.x.*.$ $   7 R `.`.",
"8.0.%Xc.c.B.0.%Xp.u.k.2.5 w.%XB.0.8.e.J.%XB.B.M.k.y.y.A.A.0.8.8.e.0.X.' ' ' ' ' s.M.4 o @ ) h.i.u.c.;.f f I L.x. X;.S B 7 k *.%X",
"8.e.c.u.i.B.9.%Xk.w.%.4 o + ) `.8.9.y.y.B.A.y.d.A.y.y.c.B.B.B.B.:.o.] ' ' ' ' ] X.q : : : 3.u.' ' z.- i l 5 L.k.%Xq.R q.w.1 1  X",
"8.M.u.' i.<.7 4 8.8.%.F @ o B %X0.8.8.0.B.`.B.i.A.e.B.h.8.e.m.] ' u.,.f.x.k.c.A.W , o = s P x.] ' i.*.6 , ,.s.%X~.B 4.I.c.P 6 :.",
"9.p.' ' i.I 6 B m.3.3.2.F *.A.%X8.&.J A 7.y.B.i.~.y.k.y.8.r.] ' ' ' r.;.k.k.x.M.7.B + 9 @ r L.u.u.x.%X#.6.%X%X-XA.* F :.P a > q.",
"9.p.' ' d.0.4.~.] ' ' s.`.%X%X~.9.R o o S F L.c.c.`.d.P F h.u.' ' ..B.0.8.q.] ' i.h.4 p 9 w k.s.c.A.4.P A w.%Xc.I.3.N + s a ) A.",
"8.M.' i.~.8.y. Xu.' ' s.`.%X%X XB.8.4.B.%XB.k.~.c.B.%XF 3.s.' O.2.4.e.0.&.e.8.X...b.0.#.%.0.c.s.L.H p l i > =.k.s.%X%XB.#.%.B.q.",
"0.A.c.c.B.%.A. Xi.' ] c.B.e.e.0.:.B G ) } C Y & B.A.l.~.u.] *.B + * 4.8.8.e.9.9.8.8.8.8.0.#.*.0.%.% s i i 6 % B.c.%X%X`.0.T B 5 ",
"] u.L.*.- 7 *.I.i.' ' s.A.~.M.r.@.X 6 9   X = 5 w.m.A.w.} 5 @ + C 7.0.8.8.e.9.8.B.A.e.8.#.#.P e.m.3.H 0 p , @.L.I.-X-X`.0.4 $ P ",
"u.k.0.R - k ) %Xi.' u.z.y. Xi.] s.2.% 9 @ X :.`.A.A.4 + - p B 7.0.e.0.7.0.0.8.0.e.0.L.y.7.L.s.k.i.x.~.8.%.A.s.i.c.-X-X%X0.8.A.x.",
"' c.4.F + < y.%Xi.s.`.S X :.k.u.s.-X~.F o A A.`.%XB.+ 4 # 5 B.0.0.#.4 + + % *.e.0.8.A.w.y.k.' u.c.I.A.8.8.`.x.u.I.c.%X`.9.8.~.i.",
"g.4 J $ 6 - y.c.u.] d.2.@.B.x.i.c.-X%Xy.4 S 0.e.B.B.4.;.) A.`.B.8.0.@.F # N c.f.e.8.8.0.7.M.k.M.B.`.y.8.0.~.`.x.c.I.%XA.e.4.;.:.",
"l.$ & X p s 2.s.] ' i.%X0.y.I.I.I.-X%X`.6.4.0.0.B.%X~.%XA.%Xr.8.r.w.] O.=.] ] i.r.%.A 0 p - #.y.M.x.y.%.R P y.I.i.c.%X%XM.I.7.F ",
"4.:.) B 1 , ;.k.' ' u.c.8.y.I.I.I.I.-X%Xe.y.y.e.e.`.%XL.c.s.<.O. .' ' ' ] ] ' ' M.F p p s g @.i.' p.q.# O @.L.i.' x.%X%XA. XM.0.",
"8.B. XI.`.e.e.A.u.' ' c.0.B.I.c.c.%X%X%XB.A.y.y.B.B.A.%Xp.' ' ' ' ' ' ' ;.K p.i.i.I.w.) ( :.b.' ' s.) + F  Xs.u.s.L.%XA.0.%.I w.",
"%.A.i.u.u.~.0.A.p.' ' c.e.B.`.c.~.@.5 5 B F C F S e.%XI.] ' ' ' ] 1.:.2.4.4 K A.L.x.%X`.%XL.u.' ' p.A.0.e.c.k.B.%.#.~.I.e.< o J ",
"8.%Xi.s.c.A.8.y.s.u.k.w.5 J ~.y.y.S > s :     4 #.A.%X%Xu.' ' ' :.0.&.0.0.8.W m.A.%X`.%X-Xs.' ' p.L.B.8.0.c.u.M.0.e.L.' i.L U B ",
"] i.c.%XI.~.8.r.u.u.L.:.: P %XB.8.S 6 8 k = F y.e.A.~.A.k.] ' ] 0.8.#.F J %.8.7.c.I.%X%X%Xs.' d.`.y.#.A A h.u.' i.i.u.' ] I.`.3.",
"s.] ] ] ' ~.%.7.s.] ' k.y.A.-XA.8.@.8 9 a P A.`.q.C $ $ F r.f.` 4.8.0.4.R B #.e.w.%XJ.B.B.x.i.~. X@.: i s % M.] ' ' ' ' ]  Xe.0.",
"M.u.' ' ' M.# y 8.r.k.x.A.A.%X`.e.A.`.J.B.J.B.C X X X $ 4 0.P   o 4 8.0.B.%.4.0.8.B.y.B.b.e.w.z.c.y.A , < F ~.d.' ' ' ' ] L.0.8.",
"M.u.' ' u.r.;.2.e.0.A.I.`.%Xc.p.I.%XA.`.%XA.R $ X * ) h.z.i.i.K 5 % 4.e.e.0.y.0.8.w.M.A.M.8.e.x.%XA.9.r.M.`.`.I.u.' ' ' ' L.0.8.",
"] ' u.s.1.R B.x.i.k.%X%X`.`.I.i.I.y.y.J.%X%X`.0.:.q.`.~.z.s.f.e.e.e.e.B.8.r.e.0.8.l.q.q.B.8.B.I.%X`.9.~.s.%X`.I.' ' ' ' ' c.0.8.",
"1.3.r.@.> @ 7.%Xp.' s.%Xe.`.c.i. X8.0.B.J.A.t.] i.1.F # 5 @.A 0.0.e.8.y.8.q.@.9.8.c.q.#.t r E 3.2.{ f y q.F B.I.i.' ' ' ] k.e.8.",
"F %.B % K #.8.A.u.' u.c.`.c.] u.I.r.8.y.y.e.`.A.F @ + J N o 1 > @.R F 5 > 6 p 9 *.%XA.5 k l > B 4 + i 9 4 + B. Xc.' i.c.x.s.y.9.",
"Y 3 =.L.c.m.8.A.] ' ' k.`.I.] ] c.`.#.P R e.A.y.@.- + P 5 + 8.^ 4 J * - p p p a b.c.%X:.# - w B J J 9 s : *.L.x.I.s.`.:.M.f.A.~.",
"#.r.c.k.c.z.=.A.] ' ' k.y.~.u.] c.q.o o O $ q.k.s.3.B A < ) f.u...8.8.4.;.7.#.<.u.p.%X%XA.l.p.i.i.s.M.#.;.c.u.u.x. X4.& - B ~.s."
};
